PathFileType	4	(X/Y/Z)	SUBJ32_2_walk_RCNL2025.trc
DataRate	CameraRate	NumFrames	NumMarkers	Units	OrigDataRate	OrigDataStartFrame	OrigNumFrames
100	100	7	25	mm	100	322	428
Frame#	Time	R_Shoulder			L_Shoulder			C7			J_Notch			R_Elbow			L_Elbow			R_Wrist			L_Wrist			R_Asis			L_Asis			Sacral			Thoracic			Sternum			R_Thigh_Lateral			R_Knee_Lateral			R_Shank_Lateral			R_Ankle_Lateral			R_Heel			R_Toe			L_Thigh_Lateral			L_Knee_Lateral			L_Shank_Lateral			L_Ankle_Lateral			L_Heel			L_Toe		
		X1	Y1	Z1	X2	Y2	Z2	X3	Y3	Z3	X4	Y4	Z4	X5	Y5	Z5	X6	Y6	Z6	X7	Y7	Z7	X8	Y8	Z8	X9	Y9	Z9	X10	Y10	Z10	X11	Y11	Z11	X12	Y12	Z12	X13	Y13	Z13	X14	Y14	Z14	X15	Y15	Z15	X16	Y16	Z16	X17	Y17	Z17	X18	Y18	Z18	X19	Y19	Z19	X20	Y20	Z20	X21	Y21	Z21	X22	Y22	Z22	X23	Y23	Z23	X24	Y24	Z24	X25	Y25	Z25
322	3.21000000	1421.153320	1348.467896	3.013947	1416.087524	1329.497681	-377.461029	1399.257690	1423.581055	-182.189651	1506.484619	1303.169312	-182.639557	1292.562866	1034.556641	102.746674	1280.951782	1027.222290	-440.717224	1302.166626	786.690704	129.125584	1287.532471	767.876404	-419.582901	1456.349609	881.404907	-51.227959	1472.292969	876.526184	-299.321136	1265.300293	927.538513	-184.094315	1277.477783	1189.555298	-180.223022	1567.771240	1081.924927	-170.483643	1320.625854	533.541321	52.231026	1314.732910	442.960266	18.912497	1200.699097	337.138855	83.867233	1041.604736	185.140381	-36.401920	1011.600708	225.413849	-89.756241	1085.658203	62.023193	-79.910767	1472.046143	543.617065	-395.096466	1506.721924	458.874573	-348.662994	1518.656616	235.759155	-369.561127	1510.300415	50.452465	-281.263580	1458.860596	41.358364	-234.529785	1645.353027	34.208954	-247.190643
323	3.22000000	1431.760986	1350.419067	1.459145	1427.092407	1331.338013	-378.951996	1409.538330	1425.408447	-183.750305	1517.241821	1305.275269	-184.117584	1303.688232	1036.379517	101.260391	1293.149414	1028.786255	-442.954956	1313.730164	788.569946	127.799427	1300.086365	769.388062	-423.139648	1467.426758	883.219788	-52.643044	1482.818604	878.279846	-300.951904	1276.315186	929.314331	-185.144745	1288.461548	1191.269775	-181.792969	1578.726318	1084.025269	-172.060181	1339.796021	534.193604	52.516819	1335.834351	444.118591	19.541580	1222.243774	338.877930	84.624763	1060.167603	190.597031	-35.632370	1030.526978	230.915451	-89.429672	1102.249756	66.116493	-77.710762	1478.204834	543.504639	-395.594727	1512.102295	458.590729	-349.175476	1521.064819	235.344543	-369.447235	1510.688965	50.504940	-280.775421	1459.102417	41.576569	-234.220261	1645.690918	34.134487	-246.782013
324	3.23000000	1442.183960	1352.342407	0.017749	1437.953369	1333.220703	-380.334137	1419.641357	1427.224121	-185.194839	1527.852295	1307.415527	-185.485413	1314.688721	1038.134644	99.829834	1305.256226	1030.398071	-445.201447	1325.232483	790.379669	126.513271	1312.621826	770.948059	-426.820908	1478.445679	885.066895	-53.946026	1493.177124	879.964600	-302.520264	1287.208252	931.103699	-186.118561	1299.317017	1192.981323	-183.303177	1589.530151	1086.128662	-173.564087	1359.025879	535.010376	52.544323	1356.953857	445.455658	19.825167	1244.121338	340.404938	85.003143	1079.656738	195.052261	-34.982330	1049.794800	234.978195	-89.174332	1121.385132	70.140823	-75.375763	1484.326294	543.456482	-396.038025	1517.163208	458.264282	-349.550568	1523.369995	234.951721	-369.278961	1511.049805	50.523579	-280.273743	1459.321167	41.812222	-233.910599	1645.990234	34.038342	-246.438431
325	3.24000000	1452.426514	1354.219604	-1.314119	1448.667603	1335.120605	-381.612366	1429.568481	1429.004639	-186.529846	1538.317139	1309.568359	-186.747849	1325.562012	1039.805420	98.452751	1317.269775	1032.032227	-447.452942	1336.661987	792.103363	125.266773	1325.144653	772.534027	-430.608734	1489.435303	886.949036	-55.160511	1503.374268	881.569641	-304.023346	1297.982178	932.885803	-187.007782	1310.045410	1194.668579	-184.748398	1600.188110	1088.214966	-174.999115	1378.249023	535.996887	52.319389	1378.006470	446.973236	19.764343	1266.140259	341.858063	85.002594	1100.027954	198.391266	-34.451046	1069.392944	237.538635	-88.962830	1142.898926	73.872978	-73.052956	1490.406250	543.488464	-396.447357	1521.951660	457.922272	-349.817841	1525.609741	234.593277	-369.085846	1511.380859	50.518867	-279.779114	1459.523071	42.057590	-233.618759	1646.243652	33.931324	-246.166016
326	3.25000000	1462.497925	1356.033691	-2.541381	1459.235107	1337.013794	-382.792816	1439.323486	1430.727783	-187.762466	1548.639771	1311.712402	-187.910919	1336.308960	1041.378052	97.127151	1329.190796	1033.664307	-449.705231	1348.009399	793.726807	124.059052	1337.661621	774.124786	-434.484207	1500.418701	888.862366	-56.313339	1513.417236	883.086731	-305.459808	1308.640991	934.640625	-187.805817	1320.649536	1196.312012	-186.123306	1610.707764	1090.265625	-176.370255	1397.411011	537.151306	51.866077	1398.921265	448.661255	19.377354	1288.153564	343.332062	84.666412	1121.239502	200.533112	-34.032768	1089.347900	238.577408	-88.765640	1166.541260	77.118912	-70.876892	1496.405396	543.598083	-396.833801	1526.496582	457.584290	-350.006958	1527.790283	234.276184	-368.890625	1511.680664	50.502258	-279.306458	1459.712769	42.302330	-233.352264	1646.448242	33.826584	-245.960602
327	3.26000000	1472.410767	1357.769531	-3.669734	1469.658325	1338.877930	-383.882294	1448.912842	1432.372925	-188.900146	1558.825317	1313.827148	-188.981583	1346.933716	1042.840576	95.851540	1341.021973	1035.271240	-451.954041	1359.267700	795.237946	122.888836	1350.180359	775.700562	-438.427765	1511.411011	890.795898	-57.429665	1523.314941	884.509460	-306.829834	1319.189331	936.349304	-188.507721	1331.133423	1197.893066	-187.422714	1621.098022	1092.262451	-177.683456	1416.467773	538.464417	51.220856	1419.640015	450.498077	18.696112	1310.073975	344.848480	84.076111	1143.249268	201.433334	-33.719254	1109.713867	238.113052	-88.557808	1192.018921	79.733582	-68.950211	1502.270264	543.771912	-397.202148	1530.814209	457.263580	-350.146210	1529.894287	234.002762	-368.709564	1511.948364	50.485420	-278.867188	1459.891724	42.535435	-233.110901	1646.605591	33.735023	-245.810989
328	3.27000000	1482.181274	1359.412964	-4.705350	1479.942261	1340.692383	-384.888245	1458.344604	1433.920410	-189.950150	1568.880981	1315.893066	-189.967377	1357.442871	1044.182983	94.625145	1352.767944	1036.831421	-454.194885	1370.432129	796.626801	121.754742	1362.708679	777.242950	-442.419342	1522.418579	892.731323	-58.528950	1533.077148	885.832886	-308.134644	1329.632812	937.994202	-189.110291	1341.503052	1199.395020	-188.641693	1631.369263	1094.188477	-178.945358	1435.384521	539.919189	50.426563	1440.116577	452.451874	17.761614	1331.878052	346.338776	83.331497	1166.014404	201.083603	-33.501648	1130.562256	236.194916	-88.324165	1219.032959	81.629349	-67.333282	1507.950562	543.991821	-397.554901	1534.912354	456.968048	-350.261414	1531.891968	233.771545	-368.553955	1512.184326	50.479420	-278.470917	1460.058472	42.746960	-232.889832	1646.721191	33.663090	-245.702957
